<svg width="100%" height="100%" viewBox="0 0 24 24" version="1.1" xmlns="http://www.w3.org/2000/svg" xmlns:xlink="http://www.w3.org/1999/xlink" xml:space="preserve" xmlns:serif="http://www.serif.com/" style="fill-rule:evenodd;clip-rule:evenodd;stroke-linejoin:round;stroke-miterlimit:2;"><g id="Icon"><path d="M19.75,4.042c0,-0.739 -0.288,-1.447 -0.8,-1.969c-0.517,-0.528 -1.219,-0.823 -1.95,-0.823l-10,0c-0.731,0 -1.433,0.295 -1.95,0.823c-0.512,0.522 -0.8,1.23 -0.8,1.969c0,3.853 -0,12.951 0,16.937c-0,0.692 0.398,1.318 1.013,1.606c0.625,0.294 1.36,0.19 1.882,-0.266l4.698,-4.112c0.09,-0.079 0.224,-0.079 0.314,0l4.698,4.112c0.522,0.456 1.257,0.56 1.882,0.266c0.615,-0.288 1.013,-0.914 1.013,-1.606l-0,-16.937Z" id="id_101" style="fill: rgb(255, 255, 255);"></path></g></svg>