<svg width="24" height="24" viewBox="0 0 24 24" fill="none" xmlns="http://www.w3.org/2000/svg">
<path d="M18 21H12C11.2044 21 10.4413 20.6839 9.87868 20.1213C9.31607 19.5587 9 18.7956 9 18V15H5.667C4.95991 14.9992 4.28201 14.718 3.78202 14.218C3.28204 13.718 3.00079 13.0401 3 12.333L3 5.667C3.00079 4.95991 3.28204 4.28201 3.78202 3.78202C4.28201 3.28204 4.95991 3.00079 5.667 3L12.333 3C13.0401 3.00079 13.718 3.28204 14.218 3.78202C14.718 4.28201 14.9992 4.95991 15 5.667V9H18C18.7956 9 19.5587 9.31607 20.1213 9.87868C20.6839 10.4413 21 11.2044 21 12V18C21 18.7956 20.6839 19.5587 20.1213 20.1213C19.5587 20.6839 18.7956 21 18 21V21ZM5.667 5C5.49018 5.00026 5.32068 5.07062 5.19565 5.19565C5.07062 5.32068 5.00026 5.49018 5 5.667V12.333C5.00026 12.5098 5.07062 12.6793 5.19565 12.8043C5.32068 12.9294 5.49018 12.9997 5.667 13H9V12C9 11.2044 9.31607 10.4413 9.87868 9.87868C10.4413 9.31607 11.2044 9 12 9H13V5.667C12.9997 5.49018 12.9294 5.32068 12.8043 5.19565C12.6793 5.07062 12.5098 5.00026 12.333 5H5.667Z" fill="#ffffff" id="id_101"></path>
</svg>